<mxfile host="app.diagrams.net" modified="2024-01-17T08:29:05.913Z" agent="Mozilla/5.0 (Windows NT 10.0; Win64; x64) AppleWebKit/537.36 (KHTML, like Gecko) Chrome/118.0.0.0 YaBrowser/23.11.0.0 Safari/537.36" etag="jWgoefpnGe6d4zMUKTwU" version="22.1.20" type="device">
  <diagram name="Страница — 1" id="V0WTHZ44ybsy0odaC5r9">
    <mxGraphModel dx="1002" dy="567" grid="1" gridSize="10" guides="1" tooltips="1" connect="1" arrows="1" fold="1" page="1" pageScale="1" pageWidth="827" pageHeight="1169" math="0" shadow="0">
      <root>
        <mxCell id="0" />
        <mxCell id="1" parent="0" />
        <mxCell id="vAAPRj0TfdJB7VeYS5f3-1" value="Начало" style="ellipse;whiteSpace=wrap;html=1;" vertex="1" parent="1">
          <mxGeometry x="320" y="20" width="160" height="80" as="geometry" />
        </mxCell>
        <mxCell id="vAAPRj0TfdJB7VeYS5f3-2" value="Конец" style="ellipse;whiteSpace=wrap;html=1;" vertex="1" parent="1">
          <mxGeometry x="320" y="1250" width="160" height="80" as="geometry" />
        </mxCell>
        <mxCell id="vAAPRj0TfdJB7VeYS5f3-3" value="Заявка от клинта/сотрудника" style="shape=parallelogram;perimeter=parallelogramPerimeter;whiteSpace=wrap;html=1;fixedSize=1;" vertex="1" parent="1">
          <mxGeometry x="320" y="120" width="160" height="60" as="geometry" />
        </mxCell>
        <mxCell id="vAAPRj0TfdJB7VeYS5f3-4" value="Вывод отчёта" style="shape=parallelogram;perimeter=parallelogramPerimeter;whiteSpace=wrap;html=1;fixedSize=1;" vertex="1" parent="1">
          <mxGeometry x="320" y="1090" width="160" height="60" as="geometry" />
        </mxCell>
        <mxCell id="vAAPRj0TfdJB7VeYS5f3-5" value="Регистрация заявки" style="rounded=0;whiteSpace=wrap;html=1;" vertex="1" parent="1">
          <mxGeometry x="320" y="200" width="160" height="60" as="geometry" />
        </mxCell>
        <mxCell id="vAAPRj0TfdJB7VeYS5f3-6" value="Обработка заявки" style="rounded=0;whiteSpace=wrap;html=1;" vertex="1" parent="1">
          <mxGeometry x="320" y="280" width="160" height="60" as="geometry" />
        </mxCell>
        <mxCell id="vAAPRj0TfdJB7VeYS5f3-7" value="Добавление уточнений" style="rounded=0;whiteSpace=wrap;html=1;" vertex="1" parent="1">
          <mxGeometry x="520" y="500" width="160" height="60" as="geometry" />
        </mxCell>
        <mxCell id="vAAPRj0TfdJB7VeYS5f3-8" value="Нужно ли уточнять детали?" style="rhombus;whiteSpace=wrap;html=1;" vertex="1" parent="1">
          <mxGeometry x="315" y="360" width="170" height="80" as="geometry" />
        </mxCell>
        <mxCell id="vAAPRj0TfdJB7VeYS5f3-9" value="Исполнение заявки" style="rounded=0;whiteSpace=wrap;html=1;" vertex="1" parent="1">
          <mxGeometry x="320" y="910" width="160" height="60" as="geometry" />
        </mxCell>
        <mxCell id="vAAPRj0TfdJB7VeYS5f3-10" value="&lt;font style=&quot;font-size: 8px;&quot;&gt;Нужна ли координация работ с другими специалистами?&lt;/font&gt;" style="rhombus;whiteSpace=wrap;html=1;fontSize=7;" vertex="1" parent="1">
          <mxGeometry x="315" y="575" width="170" height="70" as="geometry" />
        </mxCell>
        <mxCell id="vAAPRj0TfdJB7VeYS5f3-11" value="&lt;font style=&quot;font-size: 9px;&quot;&gt;Необходимо ли заказывать запчасти?&lt;/font&gt;" style="rhombus;whiteSpace=wrap;html=1;" vertex="1" parent="1">
          <mxGeometry x="317.5" y="740" width="165" height="70" as="geometry" />
        </mxCell>
        <mxCell id="vAAPRj0TfdJB7VeYS5f3-12" value="Координация работ" style="rounded=0;whiteSpace=wrap;html=1;" vertex="1" parent="1">
          <mxGeometry x="520" y="650" width="160" height="60" as="geometry" />
        </mxCell>
        <mxCell id="vAAPRj0TfdJB7VeYS5f3-13" value="Создание запроса на запчасти" style="rounded=0;whiteSpace=wrap;html=1;" vertex="1" parent="1">
          <mxGeometry x="520" y="820" width="160" height="60" as="geometry" />
        </mxCell>
        <mxCell id="vAAPRj0TfdJB7VeYS5f3-14" value="Составление отчёта" style="rounded=0;whiteSpace=wrap;html=1;" vertex="1" parent="1">
          <mxGeometry x="320" y="1000" width="160" height="60" as="geometry" />
        </mxCell>
        <mxCell id="vAAPRj0TfdJB7VeYS5f3-15" value="Уточнения от клинта/сотрудника" style="shape=parallelogram;perimeter=parallelogramPerimeter;whiteSpace=wrap;html=1;fixedSize=1;" vertex="1" parent="1">
          <mxGeometry x="520" y="420" width="160" height="60" as="geometry" />
        </mxCell>
        <mxCell id="vAAPRj0TfdJB7VeYS5f3-16" value="Анализ отчёта" style="rounded=0;whiteSpace=wrap;html=1;" vertex="1" parent="1">
          <mxGeometry x="320" y="1169" width="160" height="60" as="geometry" />
        </mxCell>
        <mxCell id="vAAPRj0TfdJB7VeYS5f3-17" value="" style="endArrow=classic;html=1;rounded=0;exitX=0.5;exitY=1;exitDx=0;exitDy=0;entryX=0.5;entryY=0;entryDx=0;entryDy=0;" edge="1" parent="1" source="vAAPRj0TfdJB7VeYS5f3-1" target="vAAPRj0TfdJB7VeYS5f3-3">
          <mxGeometry width="50" height="50" relative="1" as="geometry">
            <mxPoint x="510" y="120" as="sourcePoint" />
            <mxPoint x="560" y="70" as="targetPoint" />
          </mxGeometry>
        </mxCell>
        <mxCell id="vAAPRj0TfdJB7VeYS5f3-18" value="" style="endArrow=classic;html=1;rounded=0;exitX=0.5;exitY=1;exitDx=0;exitDy=0;entryX=0.5;entryY=0;entryDx=0;entryDy=0;" edge="1" parent="1" source="vAAPRj0TfdJB7VeYS5f3-3" target="vAAPRj0TfdJB7VeYS5f3-5">
          <mxGeometry width="50" height="50" relative="1" as="geometry">
            <mxPoint x="530" y="190" as="sourcePoint" />
            <mxPoint x="580" y="140" as="targetPoint" />
          </mxGeometry>
        </mxCell>
        <mxCell id="vAAPRj0TfdJB7VeYS5f3-19" value="" style="endArrow=classic;html=1;rounded=0;exitX=0.5;exitY=1;exitDx=0;exitDy=0;entryX=0.5;entryY=0;entryDx=0;entryDy=0;" edge="1" parent="1" source="vAAPRj0TfdJB7VeYS5f3-5" target="vAAPRj0TfdJB7VeYS5f3-6">
          <mxGeometry width="50" height="50" relative="1" as="geometry">
            <mxPoint x="520" y="300" as="sourcePoint" />
            <mxPoint x="570" y="250" as="targetPoint" />
          </mxGeometry>
        </mxCell>
        <mxCell id="vAAPRj0TfdJB7VeYS5f3-20" value="" style="endArrow=classic;html=1;rounded=0;exitX=0.5;exitY=1;exitDx=0;exitDy=0;entryX=0.5;entryY=0;entryDx=0;entryDy=0;" edge="1" parent="1" source="vAAPRj0TfdJB7VeYS5f3-6" target="vAAPRj0TfdJB7VeYS5f3-8">
          <mxGeometry width="50" height="50" relative="1" as="geometry">
            <mxPoint x="580" y="360" as="sourcePoint" />
            <mxPoint x="630" y="310" as="targetPoint" />
          </mxGeometry>
        </mxCell>
        <mxCell id="vAAPRj0TfdJB7VeYS5f3-21" value="" style="endArrow=classic;html=1;rounded=0;exitX=1;exitY=0.5;exitDx=0;exitDy=0;entryX=0.5;entryY=0;entryDx=0;entryDy=0;edgeStyle=orthogonalEdgeStyle;" edge="1" parent="1" source="vAAPRj0TfdJB7VeYS5f3-8" target="vAAPRj0TfdJB7VeYS5f3-15">
          <mxGeometry width="50" height="50" relative="1" as="geometry">
            <mxPoint x="500" y="400" as="sourcePoint" />
            <mxPoint x="550" y="350" as="targetPoint" />
          </mxGeometry>
        </mxCell>
        <mxCell id="vAAPRj0TfdJB7VeYS5f3-22" value="Да" style="edgeLabel;html=1;align=center;verticalAlign=middle;resizable=0;points=[];" vertex="1" connectable="0" parent="vAAPRj0TfdJB7VeYS5f3-21">
          <mxGeometry x="-0.0696" y="2" relative="1" as="geometry">
            <mxPoint as="offset" />
          </mxGeometry>
        </mxCell>
        <mxCell id="vAAPRj0TfdJB7VeYS5f3-23" value="" style="endArrow=classic;html=1;rounded=0;exitX=0.5;exitY=1;exitDx=0;exitDy=0;entryX=0.5;entryY=0;entryDx=0;entryDy=0;" edge="1" parent="1" source="vAAPRj0TfdJB7VeYS5f3-8" target="vAAPRj0TfdJB7VeYS5f3-10">
          <mxGeometry width="50" height="50" relative="1" as="geometry">
            <mxPoint x="400" y="540" as="sourcePoint" />
            <mxPoint x="450" y="490" as="targetPoint" />
          </mxGeometry>
        </mxCell>
        <mxCell id="vAAPRj0TfdJB7VeYS5f3-24" value="Нет" style="edgeLabel;html=1;align=center;verticalAlign=middle;resizable=0;points=[];" vertex="1" connectable="0" parent="vAAPRj0TfdJB7VeYS5f3-23">
          <mxGeometry x="0.28" y="3" relative="1" as="geometry">
            <mxPoint as="offset" />
          </mxGeometry>
        </mxCell>
        <mxCell id="vAAPRj0TfdJB7VeYS5f3-25" value="" style="endArrow=classic;html=1;rounded=0;exitX=0.5;exitY=1;exitDx=0;exitDy=0;entryX=0.5;entryY=0;entryDx=0;entryDy=0;" edge="1" parent="1" source="vAAPRj0TfdJB7VeYS5f3-15" target="vAAPRj0TfdJB7VeYS5f3-7">
          <mxGeometry width="50" height="50" relative="1" as="geometry">
            <mxPoint x="750" y="560" as="sourcePoint" />
            <mxPoint x="800" y="510" as="targetPoint" />
          </mxGeometry>
        </mxCell>
        <mxCell id="vAAPRj0TfdJB7VeYS5f3-26" value="" style="endArrow=classic;html=1;rounded=0;exitX=0.5;exitY=1;exitDx=0;exitDy=0;entryX=0.5;entryY=0;entryDx=0;entryDy=0;edgeStyle=orthogonalEdgeStyle;" edge="1" parent="1" source="vAAPRj0TfdJB7VeYS5f3-7" target="vAAPRj0TfdJB7VeYS5f3-10">
          <mxGeometry width="50" height="50" relative="1" as="geometry">
            <mxPoint x="495" y="410" as="sourcePoint" />
            <mxPoint x="610" y="430" as="targetPoint" />
            <Array as="points">
              <mxPoint x="600" y="570" />
              <mxPoint x="400" y="570" />
            </Array>
          </mxGeometry>
        </mxCell>
        <mxCell id="vAAPRj0TfdJB7VeYS5f3-28" value="" style="endArrow=classic;html=1;rounded=0;exitX=1;exitY=0.5;exitDx=0;exitDy=0;entryX=0.5;entryY=0;entryDx=0;entryDy=0;edgeStyle=orthogonalEdgeStyle;" edge="1" parent="1" source="vAAPRj0TfdJB7VeYS5f3-10" target="vAAPRj0TfdJB7VeYS5f3-12">
          <mxGeometry width="50" height="50" relative="1" as="geometry">
            <mxPoint x="485" y="610" as="sourcePoint" />
            <mxPoint x="600" y="630" as="targetPoint" />
          </mxGeometry>
        </mxCell>
        <mxCell id="vAAPRj0TfdJB7VeYS5f3-29" value="Да" style="edgeLabel;html=1;align=center;verticalAlign=middle;resizable=0;points=[];" vertex="1" connectable="0" parent="vAAPRj0TfdJB7VeYS5f3-28">
          <mxGeometry x="-0.0696" y="2" relative="1" as="geometry">
            <mxPoint as="offset" />
          </mxGeometry>
        </mxCell>
        <mxCell id="vAAPRj0TfdJB7VeYS5f3-30" value="" style="endArrow=classic;html=1;rounded=0;exitX=1;exitY=0.5;exitDx=0;exitDy=0;entryX=0.5;entryY=0;entryDx=0;entryDy=0;edgeStyle=orthogonalEdgeStyle;" edge="1" parent="1" source="vAAPRj0TfdJB7VeYS5f3-11" target="vAAPRj0TfdJB7VeYS5f3-13">
          <mxGeometry width="50" height="50" relative="1" as="geometry">
            <mxPoint x="485" y="770" as="sourcePoint" />
            <mxPoint x="600" y="810" as="targetPoint" />
          </mxGeometry>
        </mxCell>
        <mxCell id="vAAPRj0TfdJB7VeYS5f3-31" value="Да" style="edgeLabel;html=1;align=center;verticalAlign=middle;resizable=0;points=[];" vertex="1" connectable="0" parent="vAAPRj0TfdJB7VeYS5f3-30">
          <mxGeometry x="-0.0696" y="2" relative="1" as="geometry">
            <mxPoint as="offset" />
          </mxGeometry>
        </mxCell>
        <mxCell id="vAAPRj0TfdJB7VeYS5f3-32" value="" style="endArrow=classic;html=1;rounded=0;exitX=0.5;exitY=1;exitDx=0;exitDy=0;entryX=0.5;entryY=0;entryDx=0;entryDy=0;" edge="1" parent="1" source="vAAPRj0TfdJB7VeYS5f3-10" target="vAAPRj0TfdJB7VeYS5f3-11">
          <mxGeometry width="50" height="50" relative="1" as="geometry">
            <mxPoint x="420" y="730" as="sourcePoint" />
            <mxPoint x="470" y="680" as="targetPoint" />
          </mxGeometry>
        </mxCell>
        <mxCell id="vAAPRj0TfdJB7VeYS5f3-33" value="Нет" style="edgeLabel;html=1;align=center;verticalAlign=middle;resizable=0;points=[];" vertex="1" connectable="0" parent="vAAPRj0TfdJB7VeYS5f3-32">
          <mxGeometry x="-0.12" y="2" relative="1" as="geometry">
            <mxPoint as="offset" />
          </mxGeometry>
        </mxCell>
        <mxCell id="vAAPRj0TfdJB7VeYS5f3-34" value="" style="endArrow=classic;html=1;rounded=0;exitX=0.5;exitY=1;exitDx=0;exitDy=0;entryX=0.5;entryY=0;entryDx=0;entryDy=0;edgeStyle=orthogonalEdgeStyle;" edge="1" parent="1" source="vAAPRj0TfdJB7VeYS5f3-12" target="vAAPRj0TfdJB7VeYS5f3-11">
          <mxGeometry width="50" height="50" relative="1" as="geometry">
            <mxPoint x="690" y="750" as="sourcePoint" />
            <mxPoint x="740" y="700" as="targetPoint" />
          </mxGeometry>
        </mxCell>
        <mxCell id="vAAPRj0TfdJB7VeYS5f3-35" value="" style="endArrow=classic;html=1;rounded=0;exitX=0.5;exitY=1;exitDx=0;exitDy=0;entryX=0.5;entryY=0;entryDx=0;entryDy=0;" edge="1" parent="1" source="vAAPRj0TfdJB7VeYS5f3-11" target="vAAPRj0TfdJB7VeYS5f3-9">
          <mxGeometry width="50" height="50" relative="1" as="geometry">
            <mxPoint x="440" y="880" as="sourcePoint" />
            <mxPoint x="490" y="830" as="targetPoint" />
          </mxGeometry>
        </mxCell>
        <mxCell id="vAAPRj0TfdJB7VeYS5f3-36" value="Нет" style="edgeLabel;html=1;align=center;verticalAlign=middle;resizable=0;points=[];" vertex="1" connectable="0" parent="vAAPRj0TfdJB7VeYS5f3-35">
          <mxGeometry x="-0.036" y="3" relative="1" as="geometry">
            <mxPoint as="offset" />
          </mxGeometry>
        </mxCell>
        <mxCell id="vAAPRj0TfdJB7VeYS5f3-37" value="" style="endArrow=classic;html=1;rounded=0;exitX=0.5;exitY=1;exitDx=0;exitDy=0;entryX=1;entryY=0.5;entryDx=0;entryDy=0;edgeStyle=orthogonalEdgeStyle;" edge="1" parent="1" source="vAAPRj0TfdJB7VeYS5f3-13" target="vAAPRj0TfdJB7VeYS5f3-9">
          <mxGeometry width="50" height="50" relative="1" as="geometry">
            <mxPoint x="640" y="970" as="sourcePoint" />
            <mxPoint x="690" y="920" as="targetPoint" />
          </mxGeometry>
        </mxCell>
        <mxCell id="vAAPRj0TfdJB7VeYS5f3-38" value="" style="endArrow=classic;html=1;rounded=0;exitX=0.5;exitY=1;exitDx=0;exitDy=0;entryX=0.5;entryY=0;entryDx=0;entryDy=0;" edge="1" parent="1" source="vAAPRj0TfdJB7VeYS5f3-9" target="vAAPRj0TfdJB7VeYS5f3-14">
          <mxGeometry width="50" height="50" relative="1" as="geometry">
            <mxPoint x="530" y="1030" as="sourcePoint" />
            <mxPoint x="580" y="980" as="targetPoint" />
          </mxGeometry>
        </mxCell>
        <mxCell id="vAAPRj0TfdJB7VeYS5f3-39" value="" style="endArrow=classic;html=1;rounded=0;exitX=0.5;exitY=1;exitDx=0;exitDy=0;entryX=0.5;entryY=0;entryDx=0;entryDy=0;" edge="1" parent="1" source="vAAPRj0TfdJB7VeYS5f3-14" target="vAAPRj0TfdJB7VeYS5f3-4">
          <mxGeometry width="50" height="50" relative="1" as="geometry">
            <mxPoint x="560" y="1140" as="sourcePoint" />
            <mxPoint x="610" y="1090" as="targetPoint" />
          </mxGeometry>
        </mxCell>
        <mxCell id="vAAPRj0TfdJB7VeYS5f3-40" value="" style="endArrow=classic;html=1;rounded=0;exitX=0.5;exitY=1;exitDx=0;exitDy=0;entryX=0.5;entryY=0;entryDx=0;entryDy=0;" edge="1" parent="1" source="vAAPRj0TfdJB7VeYS5f3-4" target="vAAPRj0TfdJB7VeYS5f3-16">
          <mxGeometry width="50" height="50" relative="1" as="geometry">
            <mxPoint x="530" y="1150" as="sourcePoint" />
            <mxPoint x="580" y="1100" as="targetPoint" />
          </mxGeometry>
        </mxCell>
        <mxCell id="vAAPRj0TfdJB7VeYS5f3-41" value="" style="endArrow=classic;html=1;rounded=0;exitX=0.5;exitY=1;exitDx=0;exitDy=0;entryX=0.5;entryY=0;entryDx=0;entryDy=0;" edge="1" parent="1" source="vAAPRj0TfdJB7VeYS5f3-16" target="vAAPRj0TfdJB7VeYS5f3-2">
          <mxGeometry width="50" height="50" relative="1" as="geometry">
            <mxPoint x="520" y="1270" as="sourcePoint" />
            <mxPoint x="570" y="1220" as="targetPoint" />
          </mxGeometry>
        </mxCell>
      </root>
    </mxGraphModel>
  </diagram>
</mxfile>
